%TF.GenerationSoftware,KiCad,Pcbnew,9.0.6*%
%TF.CreationDate,2025-12-04T23:30:10-05:00*%
%TF.ProjectId,FinalProjectPCB,46696e61-6c50-4726-9f6a-656374504342,rev?*%
%TF.SameCoordinates,Original*%
%TF.FileFunction,Soldermask,Top*%
%TF.FilePolarity,Negative*%
%FSLAX46Y46*%
G04 Gerber Fmt 4.6, Leading zero omitted, Abs format (unit mm)*
G04 Created by KiCad (PCBNEW 9.0.6) date 2025-12-04 23:30:10*
%MOMM*%
%LPD*%
G01*
G04 APERTURE LIST*
G04 Aperture macros list*
%AMRoundRect*
0 Rectangle with rounded corners*
0 $1 Rounding radius*
0 $2 $3 $4 $5 $6 $7 $8 $9 X,Y pos of 4 corners*
0 Add a 4 corners polygon primitive as box body*
4,1,4,$2,$3,$4,$5,$6,$7,$8,$9,$2,$3,0*
0 Add four circle primitives for the rounded corners*
1,1,$1+$1,$2,$3*
1,1,$1+$1,$4,$5*
1,1,$1+$1,$6,$7*
1,1,$1+$1,$8,$9*
0 Add four rect primitives between the rounded corners*
20,1,$1+$1,$2,$3,$4,$5,0*
20,1,$1+$1,$4,$5,$6,$7,0*
20,1,$1+$1,$6,$7,$8,$9,0*
20,1,$1+$1,$8,$9,$2,$3,0*%
G04 Aperture macros list end*
%ADD10RoundRect,0.101600X0.795495X0.088388X0.088388X0.795495X-0.795495X-0.088388X-0.088388X-0.795495X0*%
%ADD11RoundRect,0.101600X-0.088388X0.795495X-0.795495X0.088388X0.088388X-0.795495X0.795495X-0.088388X0*%
%ADD12RoundRect,0.101600X-0.795495X-0.088388X-0.088388X-0.795495X0.795495X0.088388X0.088388X0.795495X0*%
%ADD13RoundRect,0.101600X0.088388X-0.795495X0.795495X-0.088388X-0.088388X0.795495X-0.795495X0.088388X0*%
%ADD14C,1.612000*%
%ADD15RoundRect,0.250000X-0.750000X-0.750000X0.750000X-0.750000X0.750000X0.750000X-0.750000X0.750000X0*%
%ADD16C,2.000000*%
%ADD17C,1.574800*%
%ADD18C,1.400000*%
%ADD19RoundRect,0.102000X-0.580000X0.580000X-0.580000X-0.580000X0.580000X-0.580000X0.580000X0.580000X0*%
%ADD20C,1.364000*%
%ADD21RoundRect,0.250000X-0.750000X0.750000X-0.750000X-0.750000X0.750000X-0.750000X0.750000X0.750000X0*%
%ADD22R,1.800000X1.800000*%
%ADD23C,1.800000*%
%ADD24R,1.200000X2.000000*%
%ADD25O,1.200000X2.000000*%
G04 APERTURE END LIST*
D10*
%TO.C,SW10*%
X90169328Y-127810487D03*
X91724963Y-129366122D03*
D11*
X92290648Y-134139093D03*
X90947146Y-135482596D03*
X89603643Y-136826098D03*
D12*
X84830672Y-136260413D03*
X83275037Y-134704778D03*
D13*
X82709352Y-129931807D03*
X84052854Y-128588304D03*
X85396357Y-127244802D03*
%TD*%
D14*
%TO.C,LS1*%
X142000000Y-164250000D03*
X142000000Y-157750000D03*
%TD*%
D15*
%TO.C,BT1*%
X82960000Y-86500000D03*
D16*
X85500000Y-86500000D03*
%TD*%
D17*
%TO.C,SW6*%
X137500000Y-124325505D03*
X142500000Y-124325505D03*
X142500000Y-129325495D03*
X137500000Y-129325495D03*
%TD*%
%TO.C,SW5*%
X126893398Y-134825505D03*
X131893398Y-134825505D03*
X131893398Y-139825495D03*
X126893398Y-139825495D03*
%TD*%
D18*
%TO.C,R1*%
X81000000Y-154500000D03*
X81000000Y-149420000D03*
%TD*%
D15*
%TO.C,J2*%
X98332858Y-86000000D03*
D16*
X100872858Y-86000000D03*
X103412858Y-86000000D03*
X105952858Y-86000000D03*
X108492858Y-86000000D03*
X111032858Y-86000000D03*
X113572858Y-86000000D03*
X116112858Y-86000000D03*
X118652858Y-86000000D03*
%TD*%
D17*
%TO.C,SW8*%
X96500000Y-161325505D03*
X101500000Y-161325505D03*
X101500000Y-166325495D03*
X96500000Y-166325495D03*
%TD*%
%TO.C,SW9*%
X113500000Y-161325505D03*
X118500000Y-161325505D03*
X118500000Y-166325495D03*
X113500000Y-166325495D03*
%TD*%
D19*
%TO.C,RV1*%
X149630000Y-86460000D03*
D20*
X149630000Y-89000000D03*
X149630000Y-91540000D03*
%TD*%
D21*
%TO.C,SW7*%
X77000000Y-85500000D03*
D16*
X77000000Y-88040000D03*
%TD*%
D15*
%TO.C,J1*%
X126420000Y-86000000D03*
D16*
X128960000Y-86000000D03*
X131500000Y-86000000D03*
%TD*%
D22*
%TO.C,D1*%
X75500000Y-161040000D03*
D23*
X75500000Y-158500000D03*
%TD*%
D24*
%TO.C,U1*%
X140392080Y-116430000D03*
D25*
X137852080Y-116430000D03*
X135312080Y-116430000D03*
X132772080Y-116430000D03*
X130232080Y-116430000D03*
X127692080Y-116430000D03*
X125152080Y-116430000D03*
X122612080Y-116430000D03*
X120072080Y-116430000D03*
X117532080Y-116430000D03*
X114992080Y-116430000D03*
X112452080Y-116430000D03*
X109912080Y-116430000D03*
X107372080Y-116430000D03*
X104832080Y-116430000D03*
X102292080Y-116430000D03*
X99752080Y-116430000D03*
X97212080Y-116430000D03*
X94672080Y-116430000D03*
X92134800Y-116433680D03*
X89594800Y-116433680D03*
X87054800Y-116433680D03*
X87052080Y-93570000D03*
X89592080Y-93570000D03*
X92132080Y-93570000D03*
X94672080Y-93570000D03*
X97212080Y-93570000D03*
X99752080Y-93570000D03*
X102292080Y-93570000D03*
X104832080Y-93570000D03*
X107372080Y-93570000D03*
X109912080Y-93570000D03*
X112452080Y-93570000D03*
X114992080Y-93570000D03*
X117532080Y-93570000D03*
X120072080Y-93570000D03*
X122612080Y-93570000D03*
X125152080Y-93570000D03*
X127692080Y-93570000D03*
X130232080Y-93570000D03*
X132772080Y-93570000D03*
X135312080Y-93570000D03*
X137852080Y-93570000D03*
X140392080Y-93570000D03*
%TD*%
M02*
