%TF.GenerationSoftware,KiCad,Pcbnew,9.0.6*%
%TF.CreationDate,2025-12-04T23:30:09-05:00*%
%TF.ProjectId,FinalProjectPCB,46696e61-6c50-4726-9f6a-656374504342,rev?*%
%TF.SameCoordinates,Original*%
%TF.FileFunction,Copper,L1,Top*%
%TF.FilePolarity,Positive*%
%FSLAX46Y46*%
G04 Gerber Fmt 4.6, Leading zero omitted, Abs format (unit mm)*
G04 Created by KiCad (PCBNEW 9.0.6) date 2025-12-04 23:30:09*
%MOMM*%
%LPD*%
G01*
G04 APERTURE LIST*
G04 Aperture macros list*
%AMRoundRect*
0 Rectangle with rounded corners*
0 $1 Rounding radius*
0 $2 $3 $4 $5 $6 $7 $8 $9 X,Y pos of 4 corners*
0 Add a 4 corners polygon primitive as box body*
4,1,4,$2,$3,$4,$5,$6,$7,$8,$9,$2,$3,0*
0 Add four circle primitives for the rounded corners*
1,1,$1+$1,$2,$3*
1,1,$1+$1,$4,$5*
1,1,$1+$1,$6,$7*
1,1,$1+$1,$8,$9*
0 Add four rect primitives between the rounded corners*
20,1,$1+$1,$2,$3,$4,$5,0*
20,1,$1+$1,$4,$5,$6,$7,0*
20,1,$1+$1,$6,$7,$8,$9,0*
20,1,$1+$1,$8,$9,$2,$3,0*%
%AMRotRect*
0 Rectangle, with rotation*
0 The origin of the aperture is its center*
0 $1 length*
0 $2 width*
0 $3 Rotation angle, in degrees counterclockwise*
0 Add horizontal line*
21,1,$1,$2,0,0,$3*%
G04 Aperture macros list end*
%TA.AperFunction,SMDPad,CuDef*%
%ADD10RotRect,1.000000X1.250000X135.000000*%
%TD*%
%TA.AperFunction,SMDPad,CuDef*%
%ADD11RotRect,1.000000X1.250000X225.000000*%
%TD*%
%TA.AperFunction,SMDPad,CuDef*%
%ADD12RotRect,1.000000X1.250000X315.000000*%
%TD*%
%TA.AperFunction,SMDPad,CuDef*%
%ADD13RotRect,1.000000X1.250000X45.000000*%
%TD*%
%TA.AperFunction,ComponentPad*%
%ADD14C,1.408000*%
%TD*%
%TA.AperFunction,ComponentPad*%
%ADD15RoundRect,0.250000X-0.750000X-0.750000X0.750000X-0.750000X0.750000X0.750000X-0.750000X0.750000X0*%
%TD*%
%TA.AperFunction,ComponentPad*%
%ADD16C,2.000000*%
%TD*%
%TA.AperFunction,ComponentPad*%
%ADD17C,1.574800*%
%TD*%
%TA.AperFunction,ComponentPad*%
%ADD18C,1.400000*%
%TD*%
%TA.AperFunction,ComponentPad*%
%ADD19R,1.160000X1.160000*%
%TD*%
%TA.AperFunction,ComponentPad*%
%ADD20C,1.160000*%
%TD*%
%TA.AperFunction,ComponentPad*%
%ADD21RoundRect,0.250000X-0.750000X0.750000X-0.750000X-0.750000X0.750000X-0.750000X0.750000X0.750000X0*%
%TD*%
%TA.AperFunction,ComponentPad*%
%ADD22R,1.800000X1.800000*%
%TD*%
%TA.AperFunction,ComponentPad*%
%ADD23C,1.800000*%
%TD*%
%TA.AperFunction,ComponentPad*%
%ADD24R,1.200000X2.000000*%
%TD*%
%TA.AperFunction,ComponentPad*%
%ADD25O,1.200000X2.000000*%
%TD*%
%TA.AperFunction,ViaPad*%
%ADD26C,0.600000*%
%TD*%
%TA.AperFunction,Conductor*%
%ADD27C,0.200000*%
%TD*%
G04 APERTURE END LIST*
D10*
%TO.P,SW10,1,Up*%
%TO.N,UP*%
X90169328Y-127810487D03*
%TO.P,SW10,2,Right*%
%TO.N,RIGHT*%
X91724963Y-129366122D03*
D11*
%TO.P,SW10,3,GND*%
%TO.N,GND*%
X92290648Y-134139093D03*
%TO.P,SW10,4,Center*%
%TO.N,CENTER*%
X90947146Y-135482596D03*
%TO.P,SW10,5,Down*%
%TO.N,DOWN*%
X89603643Y-136826098D03*
D12*
%TO.P,SW10,6,GND*%
%TO.N,GND*%
X84830672Y-136260413D03*
%TO.P,SW10,7,Left*%
%TO.N,LEFT*%
X83275037Y-134704778D03*
D13*
%TO.P,SW10,8,GND*%
%TO.N,GND*%
X82709352Y-129931807D03*
%TO.P,SW10,9,GND*%
X84052854Y-128588304D03*
%TO.P,SW10,10,GND*%
X85396357Y-127244802D03*
%TD*%
D14*
%TO.P,LS1,N*%
%TO.N,GND*%
X142000000Y-164250000D03*
%TO.P,LS1,P*%
%TO.N,PIEZO*%
X142000000Y-157750000D03*
%TD*%
D15*
%TO.P,BT1,1,+*%
%TO.N,5V-IN*%
X82960000Y-86500000D03*
D16*
%TO.P,BT1,2,-*%
%TO.N,GND*%
X85500000Y-86500000D03*
%TD*%
D17*
%TO.P,SW6,1,1*%
%TO.N,GND*%
X137500000Y-124325505D03*
%TO.P,SW6,2,2*%
%TO.N,unconnected-(SW6-Pad2)*%
X142500000Y-124325505D03*
%TO.P,SW6,3,3*%
%TO.N,unconnected-(SW6-Pad3)*%
X142500000Y-129325495D03*
%TO.P,SW6,4,4*%
%TO.N,A*%
X137500000Y-129325495D03*
%TD*%
%TO.P,SW5,1,1*%
%TO.N,GND*%
X126893398Y-134825505D03*
%TO.P,SW5,2,2*%
%TO.N,unconnected-(SW5-Pad2)*%
X131893398Y-134825505D03*
%TO.P,SW5,3,3*%
%TO.N,unconnected-(SW5-Pad3)*%
X131893398Y-139825495D03*
%TO.P,SW5,4,4*%
%TO.N,B*%
X126893398Y-139825495D03*
%TD*%
D18*
%TO.P,R1,1*%
%TO.N,Net-(D1-A)*%
X81000000Y-154500000D03*
%TO.P,R1,2*%
%TO.N,PowerLED*%
X81000000Y-149420000D03*
%TD*%
D15*
%TO.P,J2,1,Pin_1*%
%TO.N,3V3*%
X98332858Y-86000000D03*
D16*
%TO.P,J2,2,Pin_2*%
%TO.N,GND*%
X100872858Y-86000000D03*
%TO.P,J2,3,Pin_3*%
%TO.N,CS*%
X103412858Y-86000000D03*
%TO.P,J2,4,Pin_4*%
%TO.N,RESET*%
X105952858Y-86000000D03*
%TO.P,J2,5,Pin_5*%
%TO.N,DC{slash}RS*%
X108492858Y-86000000D03*
%TO.P,J2,6,Pin_6*%
%TO.N,SDI{slash}MOSI*%
X111032858Y-86000000D03*
%TO.P,J2,7,Pin_7*%
%TO.N,SCK*%
X113572858Y-86000000D03*
%TO.P,J2,8,Pin_8*%
%TO.N,3V3*%
X116112858Y-86000000D03*
%TO.P,J2,9,Pin_9*%
%TO.N,unconnected-(J2-Pin_9-Pad9)*%
X118652858Y-86000000D03*
%TD*%
D17*
%TO.P,SW8,1,1*%
%TO.N,GND*%
X96500000Y-161325505D03*
%TO.P,SW8,2,2*%
%TO.N,unconnected-(SW8-Pad2)*%
X101500000Y-161325505D03*
%TO.P,SW8,3,3*%
%TO.N,unconnected-(SW8-Pad3)*%
X101500000Y-166325495D03*
%TO.P,SW8,4,4*%
%TO.N,HOME*%
X96500000Y-166325495D03*
%TD*%
%TO.P,SW9,1,1*%
%TO.N,GND*%
X113500000Y-161325505D03*
%TO.P,SW9,2,2*%
%TO.N,unconnected-(SW9-Pad2)*%
X118500000Y-161325505D03*
%TO.P,SW9,3,3*%
%TO.N,unconnected-(SW9-Pad3)*%
X118500000Y-166325495D03*
%TO.P,SW9,4,4*%
%TO.N,SELECT*%
X113500000Y-166325495D03*
%TD*%
D19*
%TO.P,RV1,1,1*%
%TO.N,3V3*%
X149630000Y-86460000D03*
D20*
%TO.P,RV1,2,2*%
%TO.N,VOLUME*%
X149630000Y-89000000D03*
%TO.P,RV1,3,3*%
%TO.N,GND*%
X149630000Y-91540000D03*
%TD*%
D21*
%TO.P,SW7,1,A*%
%TO.N,5V-IN*%
X77000000Y-85500000D03*
D16*
%TO.P,SW7,2,B*%
%TO.N,Net-(SW7-B)*%
X77000000Y-88040000D03*
%TD*%
D15*
%TO.P,J1,1,Pin_1*%
%TO.N,GND*%
X126420000Y-86000000D03*
D16*
%TO.P,J1,2,Pin_2*%
%TO.N,TX*%
X128960000Y-86000000D03*
%TO.P,J1,3,Pin_3*%
%TO.N,RX*%
X131500000Y-86000000D03*
%TD*%
D22*
%TO.P,D1,1,K*%
%TO.N,GND*%
X75500000Y-161040000D03*
D23*
%TO.P,D1,2,A*%
%TO.N,Net-(D1-A)*%
X75500000Y-158500000D03*
%TD*%
D24*
%TO.P,U1,1,3V3*%
%TO.N,3V3*%
X140392080Y-116430000D03*
D25*
%TO.P,U1,2,3V3*%
X137852080Y-116430000D03*
%TO.P,U1,3,RST*%
%TO.N,RESET*%
X135312080Y-116430000D03*
%TO.P,U1,4,GPIO4/ADC1_CH3*%
%TO.N,DC{slash}RS*%
X132772080Y-116430000D03*
%TO.P,U1,5,GPIO5/ADC1_CH4*%
%TO.N,CS*%
X130232080Y-116430000D03*
%TO.P,U1,6,GPIO6/ADC1_CH5*%
%TO.N,unconnected-(U1-GPIO6{slash}ADC1_CH5-Pad6)*%
X127692080Y-116430000D03*
%TO.P,U1,7,GPIO7/ADC1_CH6*%
%TO.N,PIEZO*%
X125152080Y-116430000D03*
%TO.P,U1,8,GPIO15/ADC2_CH4/32K_P*%
%TO.N,unconnected-(U1-GPIO15{slash}ADC2_CH4{slash}32K_P-Pad8)*%
X122612080Y-116430000D03*
%TO.P,U1,9,GPIO16/ADC2_CH5/32K_N*%
%TO.N,unconnected-(U1-GPIO16{slash}ADC2_CH5{slash}32K_N-Pad9)*%
X120072080Y-116430000D03*
%TO.P,U1,10,GPIO17/ADC2_CH6/U1TXD*%
%TO.N,unconnected-(U1-GPIO17{slash}ADC2_CH6{slash}U1TXD-Pad10)*%
X117532080Y-116430000D03*
%TO.P,U1,11,GPIO18/ADC2_CH7/U1RXD*%
%TO.N,unconnected-(U1-GPIO18{slash}ADC2_CH7{slash}U1RXD-Pad11)*%
X114992080Y-116430000D03*
%TO.P,U1,12,GPIO8/ADC1_CH7*%
%TO.N,unconnected-(U1-GPIO8{slash}ADC1_CH7-Pad12)*%
X112452080Y-116430000D03*
%TO.P,U1,13,GPIO3/ADC1_CH2*%
%TO.N,unconnected-(U1-GPIO3{slash}ADC1_CH2-Pad13)*%
X109912080Y-116430000D03*
%TO.P,U1,14,GPIO46*%
%TO.N,PowerLED*%
X107372080Y-116430000D03*
%TO.P,U1,15,GPIO9/ADC1_CH8*%
%TO.N,unconnected-(U1-GPIO9{slash}ADC1_CH8-Pad15)*%
X104832080Y-116430000D03*
%TO.P,U1,16,GPIO10/ADC1_CH9*%
%TO.N,unconnected-(U1-GPIO10{slash}ADC1_CH9-Pad16)*%
X102292080Y-116430000D03*
%TO.P,U1,17,GPIO11/ADC2_CH0*%
%TO.N,SDI{slash}MOSI*%
X99752080Y-116430000D03*
%TO.P,U1,18,GPIO12/ADC2_CH1*%
%TO.N,SCK*%
X97212080Y-116430000D03*
%TO.P,U1,19,GPIO13/ADC2_CH2*%
%TO.N,unconnected-(U1-GPIO13{slash}ADC2_CH2-Pad19)*%
X94672080Y-116430000D03*
%TO.P,U1,20,GPIO14/ADC2_CH3*%
%TO.N,unconnected-(U1-GPIO14{slash}ADC2_CH3-Pad20)*%
X92134800Y-116433680D03*
%TO.P,U1,21,5V*%
%TO.N,Net-(SW7-B)*%
X89594800Y-116433680D03*
%TO.P,U1,22,GND*%
%TO.N,GND*%
X87054800Y-116433680D03*
%TO.P,U1,23,GND*%
X87052080Y-93570000D03*
%TO.P,U1,24,GND*%
X89592080Y-93570000D03*
%TO.P,U1,25,GPIO19/ADC2_CH8/USB_D-*%
%TO.N,unconnected-(U1-GPIO19{slash}ADC2_CH8{slash}USB_D--Pad25)*%
X92132080Y-93570000D03*
%TO.P,U1,26,GPIO20/ADC2_CH9/USB_D+*%
%TO.N,unconnected-(U1-GPIO20{slash}ADC2_CH9{slash}USB_D+-Pad26)*%
X94672080Y-93570000D03*
%TO.P,U1,27,GPIO21*%
%TO.N,VOLUME*%
X97212080Y-93570000D03*
%TO.P,U1,28,GPIO33*%
%TO.N,CENTER*%
X99752080Y-93570000D03*
%TO.P,U1,29,GPIO34*%
%TO.N,LEFT*%
X102292080Y-93570000D03*
%TO.P,U1,30,GPIO45*%
%TO.N,UP*%
X104832080Y-93570000D03*
%TO.P,U1,31,GPIO0*%
%TO.N,unconnected-(U1-GPIO0-Pad31)*%
X107372080Y-93570000D03*
%TO.P,U1,32,GPIO35*%
%TO.N,unconnected-(U1-GPIO35-Pad32)*%
X109912080Y-93570000D03*
%TO.P,U1,33,GPIO36*%
%TO.N,unconnected-(U1-GPIO36-Pad33)*%
X112452080Y-93570000D03*
%TO.P,U1,34,GPIO37*%
%TO.N,unconnected-(U1-GPIO37-Pad34)*%
X114992080Y-93570000D03*
%TO.P,U1,35,GPIO38*%
%TO.N,unconnected-(U1-GPIO38-Pad35)*%
X117532080Y-93570000D03*
%TO.P,U1,36,GPIO39/MTCK*%
%TO.N,SELECT*%
X120072080Y-93570000D03*
%TO.P,U1,37,GPIO40/MTDO*%
%TO.N,HOME*%
X122612080Y-93570000D03*
%TO.P,U1,38,GPIO41/MTDI*%
%TO.N,A*%
X125152080Y-93570000D03*
%TO.P,U1,39,GPIO42/MTMS*%
%TO.N,B*%
X127692080Y-93570000D03*
%TO.P,U1,40,GPIO2/ADC1_CH1*%
%TO.N,DOWN*%
X130232080Y-93570000D03*
%TO.P,U1,41,GPIO1/ADC1_CH0*%
%TO.N,RIGHT*%
X132772080Y-93570000D03*
%TO.P,U1,42,GPIO44/U0RXD*%
%TO.N,RX*%
X135312080Y-93570000D03*
%TO.P,U1,43,GPIO43/U0TXD*%
%TO.N,TX*%
X137852080Y-93570000D03*
%TO.P,U1,44,GND*%
%TO.N,GND*%
X140392080Y-93570000D03*
%TD*%
D26*
%TO.N,DC{slash}RS*%
X108500000Y-112500000D03*
%TO.N,PIEZO*%
X135000000Y-132500000D03*
X129000000Y-126500000D03*
%TO.N,VOLUME*%
X146000000Y-84500000D03*
X146000000Y-84500000D03*
%TO.N,B*%
X128500000Y-90500000D03*
%TO.N,UP*%
X93000000Y-119000000D03*
%TO.N,LEFT*%
X97000000Y-123000000D03*
X81500000Y-136500000D03*
%TD*%
D27*
%TO.N,3V3*%
X140392080Y-116430000D02*
X137852080Y-116430000D01*
%TO.N,GND*%
X75500000Y-161040000D02*
X73101000Y-158641000D01*
X85554800Y-117000000D02*
X87054800Y-118500000D01*
X73101000Y-158641000D02*
X73101000Y-119899000D01*
X76000000Y-117000000D02*
X85554800Y-117000000D01*
X73101000Y-119899000D02*
X76000000Y-117000000D01*
%TO.N,5V-IN*%
X77000000Y-85500000D02*
X81960000Y-85500000D01*
X81960000Y-85500000D02*
X82960000Y-86500000D01*
%TO.N,GND*%
X87000000Y-125641159D02*
X87000000Y-124000000D01*
X122000000Y-134825505D02*
X119724981Y-134825505D01*
X119724981Y-134825505D02*
X116226893Y-138323593D01*
X130324552Y-124325505D02*
X122000000Y-132650057D01*
X85396357Y-127244802D02*
X87000000Y-125641159D01*
X92899000Y-171899000D02*
X89000000Y-168000000D01*
X84052854Y-128588304D02*
X85396357Y-127244802D01*
X142000000Y-164250000D02*
X134351000Y-171899000D01*
X100000000Y-88000000D02*
X91500000Y-88000000D01*
X77460000Y-163000000D02*
X75500000Y-161040000D01*
X103500000Y-159000000D02*
X101500000Y-157000000D01*
X126420000Y-89920000D02*
X128000000Y-91500000D01*
X87052080Y-88052080D02*
X87052080Y-93570000D01*
X93601000Y-132828741D02*
X93601000Y-118751057D01*
X83591085Y-137500000D02*
X81500000Y-137500000D01*
X93601000Y-118751057D02*
X92584623Y-117734680D01*
X126420000Y-86000000D02*
X126420000Y-89920000D01*
X87054800Y-123945200D02*
X87054800Y-118500000D01*
X92584623Y-117734680D02*
X88355800Y-117734680D01*
X92290648Y-134139093D02*
X93601000Y-132828741D01*
X126893398Y-134825505D02*
X122000000Y-134825505D01*
X81568193Y-129931807D02*
X82709352Y-129931807D01*
X92500000Y-161500000D02*
X91000000Y-163000000D01*
X96000000Y-157000000D02*
X92500000Y-160500000D01*
X100872858Y-86000000D02*
X100872858Y-87127142D01*
X149630000Y-91540000D02*
X147600000Y-93570000D01*
X81500000Y-137500000D02*
X80000000Y-136000000D01*
X92674495Y-161325505D02*
X92500000Y-161500000D01*
X82709352Y-129931807D02*
X84052854Y-128588304D01*
X87000000Y-124000000D02*
X87054800Y-123945200D01*
X80000000Y-131500000D02*
X81568193Y-129931807D01*
X147600000Y-93570000D02*
X140392080Y-93570000D01*
X91000000Y-163000000D02*
X89000000Y-163000000D01*
X87054800Y-118500000D02*
X87054800Y-116433680D01*
X128000000Y-91500000D02*
X138322080Y-91500000D01*
X100872858Y-87127142D02*
X100000000Y-88000000D01*
X86893852Y-138323593D02*
X84830672Y-136260413D01*
X96500000Y-161325505D02*
X92674495Y-161325505D01*
X89000000Y-168000000D02*
X89000000Y-163000000D01*
X88355800Y-117734680D02*
X87054800Y-116433680D01*
X116226893Y-138323593D02*
X86893852Y-138323593D01*
X85500000Y-86500000D02*
X87052080Y-88052080D01*
X122000000Y-132650057D02*
X122000000Y-134825505D01*
X101500000Y-157000000D02*
X96000000Y-157000000D01*
X91500000Y-88000000D02*
X89592080Y-89907920D01*
X113500000Y-161325505D02*
X111174495Y-159000000D01*
X80000000Y-136000000D02*
X80000000Y-131500000D01*
X137500000Y-124325505D02*
X130324552Y-124325505D01*
X134351000Y-171899000D02*
X92899000Y-171899000D01*
X84830672Y-136260413D02*
X83591085Y-137500000D01*
X111174495Y-159000000D02*
X103500000Y-159000000D01*
X138322080Y-91500000D02*
X140392080Y-93570000D01*
X92500000Y-160500000D02*
X92500000Y-161500000D01*
X89592080Y-89907920D02*
X89592080Y-93570000D01*
X89000000Y-163000000D02*
X77460000Y-163000000D01*
%TO.N,Net-(D1-A)*%
X75500000Y-158500000D02*
X79500000Y-158500000D01*
X81000000Y-157000000D02*
X81000000Y-154500000D01*
X79500000Y-158500000D02*
X81000000Y-157000000D01*
%TO.N,CS*%
X103412858Y-86000000D02*
X103412858Y-112412858D01*
X129366286Y-116430000D02*
X130232080Y-116430000D01*
X106000000Y-115000000D02*
X127936286Y-115000000D01*
X103412858Y-112412858D02*
X106000000Y-115000000D01*
X127936286Y-115000000D02*
X129366286Y-116430000D01*
%TO.N,3V3*%
X147069000Y-83899000D02*
X149630000Y-86460000D01*
X116112858Y-86000000D02*
X118213858Y-83899000D01*
X118213858Y-83899000D02*
X147069000Y-83899000D01*
X98332858Y-86000000D02*
X99633858Y-84699000D01*
X114811858Y-84699000D02*
X116112858Y-86000000D01*
X99633858Y-84699000D02*
X114811858Y-84699000D01*
%TO.N,DC{slash}RS*%
X108492858Y-86000000D02*
X108492858Y-112492858D01*
X108492858Y-112492858D02*
X108500000Y-112500000D01*
%TO.N,RESET*%
X105952858Y-86000000D02*
X105952858Y-111952858D01*
X133382080Y-114500000D02*
X135312080Y-116430000D01*
X108500000Y-114500000D02*
X133382080Y-114500000D01*
X105952858Y-111952858D02*
X108500000Y-114500000D01*
%TO.N,PIEZO*%
X135000000Y-132500000D02*
X129000000Y-126500000D01*
%TO.N,VOLUME*%
X147500000Y-89000000D02*
X146000000Y-87500000D01*
X149630000Y-89000000D02*
X147500000Y-89000000D01*
X146000000Y-87500000D02*
X146000000Y-84500000D01*
%TO.N,B*%
X129000000Y-145500000D02*
X143500000Y-145500000D01*
X126893398Y-143393398D02*
X129000000Y-145500000D01*
X147500000Y-141500000D02*
X150511000Y-138489000D01*
X149835923Y-90500000D02*
X128500000Y-90500000D01*
X126893398Y-139825495D02*
X126893398Y-143393398D01*
X150511000Y-91175077D02*
X149835923Y-90500000D01*
X150511000Y-138489000D02*
X150511000Y-91175077D01*
X143500000Y-145500000D02*
X147500000Y-141500000D01*
%TO.N,CENTER*%
X92256707Y-135482596D02*
X98851080Y-128888223D01*
X98851080Y-94471000D02*
X99752080Y-93570000D01*
X90947146Y-135482596D02*
X92256707Y-135482596D01*
X98851080Y-128888223D02*
X98851080Y-94471000D01*
%TO.N,UP*%
X90169328Y-127810487D02*
X90169328Y-121830672D01*
X90169328Y-121830672D02*
X93000000Y-119000000D01*
%TO.N,DOWN*%
X116015286Y-137401000D02*
X136213080Y-117203206D01*
X89603643Y-136826098D02*
X90178545Y-137401000D01*
X136213080Y-99551000D02*
X130232080Y-93570000D01*
X136213080Y-117203206D02*
X136213080Y-99551000D01*
X90178545Y-137401000D02*
X116015286Y-137401000D01*
%TO.N,LEFT*%
X98450080Y-121508219D02*
X98450080Y-121549920D01*
X83275037Y-134724963D02*
X81500000Y-136500000D01*
X83275037Y-134704778D02*
X83275037Y-134724963D01*
X100991080Y-92269000D02*
X102292080Y-93570000D01*
X99378874Y-92269000D02*
X100991080Y-92269000D01*
X98450080Y-121549920D02*
X97000000Y-123000000D01*
X98450080Y-93197794D02*
X99378874Y-92269000D01*
X98450080Y-121508219D02*
X98450080Y-93197794D01*
%TO.N,RIGHT*%
X89567352Y-137922593D02*
X116060793Y-137922593D01*
X91724963Y-129366122D02*
X88507148Y-132583937D01*
X88507148Y-136862389D02*
X89567352Y-137922593D01*
X88507148Y-132583937D02*
X88507148Y-136862389D01*
X116060793Y-137922593D02*
X136614080Y-117369306D01*
X136614080Y-117369306D02*
X136614080Y-97412000D01*
X136614080Y-97412000D02*
X132772080Y-93570000D01*
%TO.N,Net-(SW7-B)*%
X75000000Y-111000000D02*
X78000000Y-114000000D01*
X77000000Y-88040000D02*
X75000000Y-90040000D01*
X87161120Y-114000000D02*
X89594800Y-116433680D01*
X75000000Y-90040000D02*
X75000000Y-111000000D01*
X78000000Y-114000000D02*
X87161120Y-114000000D01*
%TO.N,RX*%
X133742080Y-92000000D02*
X135312080Y-93570000D01*
X131500000Y-86000000D02*
X130199000Y-84699000D01*
X125000000Y-89067100D02*
X127932900Y-92000000D01*
X125000000Y-85133840D02*
X125000000Y-89067100D01*
X130199000Y-84699000D02*
X125434840Y-84699000D01*
X125434840Y-84699000D02*
X125000000Y-85133840D01*
X127932900Y-92000000D02*
X133742080Y-92000000D01*
%TD*%
M02*
