M48
; DRILL file {KiCad 9.0.6} date 2025-12-04T23:30:06-0500
; FORMAT={-:-/ absolute / inch / decimal}
; #@! TF.CreationDate,2025-12-04T23:30:06-05:00
; #@! TF.GenerationSoftware,Kicad,Pcbnew,9.0.6
; #@! TF.FileFunction,Plated,1,2,PTH
FMAT,2
INCH
; #@! TA.AperFunction,Plated,PTH,ViaDrill
T1C0.0118
; #@! TA.AperFunction,Plated,PTH,ComponentDrill
T2C0.0276
; #@! TA.AperFunction,Plated,PTH,ComponentDrill
T3C0.0299
; #@! TA.AperFunction,Plated,PTH,ComponentDrill
T4C0.0315
; #@! TA.AperFunction,Plated,PTH,ComponentDrill
T5C0.0354
; #@! TA.AperFunction,Plated,PTH,ComponentDrill
T6C0.0420
; #@! TA.AperFunction,Plated,PTH,ComponentDrill
T7C0.0472
%
G90
G05
T1
X3.2087Y-5.374
X3.6614Y-4.685
X3.8189Y-4.8425
X4.2717Y-4.4291
X5.0591Y-3.563
X5.0787Y-4.9803
X5.315Y-5.2165
X5.748Y-3.3268
X5.748Y-3.3268
T2
X3.189Y-5.8827
X3.189Y-6.0827
T3
X5.8909Y-3.4039
X5.8909Y-3.5039
X5.8909Y-3.6039
T4
X3.4272Y-3.6839
X3.4274Y-4.584
X3.5272Y-3.6839
X3.5274Y-4.584
X3.6272Y-3.6839
X3.6274Y-4.584
X3.7272Y-3.6839
X3.7272Y-4.5839
X3.8272Y-3.6839
X3.8272Y-4.5839
X3.9272Y-3.6839
X3.9272Y-4.5839
X4.0272Y-3.6839
X4.0272Y-4.5839
X4.1272Y-3.6839
X4.1272Y-4.5839
X4.2272Y-3.6839
X4.2272Y-4.5839
X4.3272Y-3.6839
X4.3272Y-4.5839
X4.4272Y-3.6839
X4.4272Y-4.5839
X4.5272Y-3.6839
X4.5272Y-4.5839
X4.6272Y-3.6839
X4.6272Y-4.5839
X4.7272Y-3.6839
X4.7272Y-4.5839
X4.8272Y-3.6839
X4.8272Y-4.5839
X4.9272Y-3.6839
X4.9272Y-4.5839
X5.0272Y-3.6839
X5.0272Y-4.5839
X5.1272Y-3.6839
X5.1272Y-4.5839
X5.2272Y-3.6839
X5.2272Y-4.5839
X5.3272Y-3.6839
X5.3272Y-4.5839
X5.4272Y-3.6839
X5.4272Y-4.5839
X5.5272Y-3.6839
X5.5272Y-4.5839
T5
X2.9724Y-6.2402
X2.9724Y-6.3402
X5.5906Y-6.2106
X5.5906Y-6.4665
T6
X3.7992Y-6.3514
X3.7992Y-6.5482
X3.9961Y-6.3514
X3.9961Y-6.5482
X4.4685Y-6.3514
X4.4685Y-6.5482
X4.6654Y-6.3514
X4.6654Y-6.5482
X4.9958Y-5.3081
X4.9958Y-5.5049
X5.1927Y-5.3081
X5.1927Y-5.5049
X5.4134Y-4.8947
X5.4134Y-5.0916
X5.6102Y-4.8947
X5.6102Y-5.0916
T7
X3.0315Y-3.3661
X3.0315Y-3.4661
X3.2661Y-3.4055
X3.3661Y-3.4055
X3.8714Y-3.3858
X3.9714Y-3.3858
X4.0714Y-3.3858
X4.1714Y-3.3858
X4.2714Y-3.3858
X4.3714Y-3.3858
X4.4714Y-3.3858
X4.5714Y-3.3858
X4.6714Y-3.3858
X4.9772Y-3.3858
X5.0772Y-3.3858
X5.1772Y-3.3858
M30
